# xmcd CD database file
#
# Track frame offsets:
#	150
#	36040
#	125426
#	158350
#
# Disc length: 3964 seconds
#
# Revision: 0
# Processed by: cddbd v1.5.2PL0 Copyright (c) Steve Scherf et al.
# Submitted via: CDex 1.70beta3
#
DISCID=230f7a04
DTITLE=Tyshawn Sorey - Alloy
DYEAR=2014
DGENRE=Jazz
TTITLE0=Returns
TTITLE1=Movement
TTITLE2=Template
TTITLE3=A Love Song
EXTD=YEAR: 2014
EXTT0=
EXTT1=
EXTT2=
EXTT3=
PLAYORDER=
